<svg xmlns="http://www.w3.org/2000/svg" xml:space="preserve" viewBox="0 0 30 30"><path d="M29.4 18.7c-.6-1-1.8-1.6-3.1-1.4l-4.9 1.2c-.2-1-1-1.8-2.1-2.1-.2 0-7.4-1.2-7.7-1.3l-.5-.1c-.2 0-.4-.1-.7-.1-.5 0-.9.2-1.2.3l-.5.2c-1.7.7-2.5 1-2.9 1.2-.1 0-.2.1-.3.1 0 0-.3.1-.5.1-.1 0-.5 0-1.5-.3l-2.1-.9-.7 1.5c.7.3 1.5.7 2.2.9.6.2 1.6.6 2.4.4l.8-.2c.2-.1.4-.2.5-.2.4-.2 1.2-.5 2.9-1.2l.5-.2c.1-.1.4-.1.5-.1h.8s7.5 1.3 7.7 1.3c.5.1.9.6.8 1.1 0 .5-.4.9-.8 1l-5.9.3.1 1.7 5.9-.3c.9-.2 1.7-.8 2.1-1.6l5.4-1.4c.6-.1 1.1.2 1.4.6.3.5.2 1.3-.3 1.7-.9.5-9.9 5.6-9.9 5.6l-.4.2c-.2.1-.4.1-.3.1-.1 0-.2 0-.4-.1h-.1c-1-.4-8.5-3.2-8.9-3.3l-.2-.1c-.1 0-.2-.1-.3-.1-.4-.1-1-.2-1.5 0l-.7.5c-.1 0-4.2 1.2-4.2 1.2l.5 1.6 4.2-1.2h.1c.1 0 .3-.1.2 0 .1 0 .2-.1.3-.1h.5l.4.1c.5.2 7.9 3 8.9 3.3l.2.1c.4.1.6.2.9.2.1 0 .6 0 1.2-.4l.1-.1c.1 0 .1-.1.2-.1 9.9-5.6 10-5.6 10-5.6l.1-.1c1.3-.9 1.6-2.6.8-3.9m-13.8-5.9 5.6-5.6c1.2-1.2 1.2-3.3 0-4.5-.6-.6-1.4-.9-2.3-.9s-1.7.3-2.3.9l-1 1-1-1c-1.3-1.3-3.3-1.3-4.5 0C8.8 4 8.8 6 10 7.2z"/></svg>