<svg xmlns="http://www.w3.org/2000/svg" viewBox="0 0 550 300" width="550" height="300" preserveAspectRatio="xMidYMid meet" style="width: 100%; height: 100%; transform: translate3d(0px, 0px, 0px);"><defs><clipPath id="__lottie_element_35"><rect width="550" height="300" x="0" y="0"></rect></clipPath><clipPath id="__lottie_element_37"><path fill="#ffffff" clip-rule="nonzero" d=" M-39.59400177001953,-114.33899688720703 C-40.10100173950195,-118.44200134277344 -40.59000015258789,-122.54900360107422 -40.869998931884766,-125.71099853515625 C-41.15999984741211,-128.87600708007812 -41.21500015258789,-131.0749969482422 -41.17399978637695,-131.43499755859375 C-41.13100051879883,-131.8209991455078 -42.33700180053711,-131.9600067138672 -43.74700164794922,-131.93499755859375 C-45.44599914550781,-131.9040069580078 -46.97700119018555,-131.75 -47.00699996948242,-131.36700439453125 C-47.03799819946289,-130.9530029296875 -47.00600051879883,-128.6790008544922 -46.742000579833984,-125.55500030517578 C-46.48899841308594,-122.4260025024414 -46.03099822998047,-118.43299865722656 -45.52199935913086,-114.44400024414062 C-45.000999450683594,-110.48500061035156 -44.47700119018555,-106.49700164794922 -44.06100082397461,-103.33899688720703 C-43.641998291015625,-100.20700073242188 -43.35499954223633,-97.93299865722656 -43.09400177001953,-97.3270034790039 C-42.944000244140625,-96.98999786376953 -42.07899856567383,-96.65699768066406 -40.52299880981445,-96.6719970703125 C-39.375,-96.68199920654297 -37.97200012207031,-97.0989990234375 -37.935001373291016,-97.54199981689453 C-37.926998138427734,-97.66799926757812 -38.00299835205078,-99.85600280761719 -38.303001403808594,-102.99199676513672 C-38.59400177001953,-106.13300323486328 -39.0880012512207,-110.23500061035156 -39.59400177001953,-114.33899688720703" fill-opacity="1"></path></clipPath><clipPath id="__lottie_element_40"><path fill="#ffffff" clip-rule="nonzero" d=" M-127.11599731445312,-85.21800231933594 C-127.44999694824219,-85.6520004272461 -127.93900299072266,-86.18900299072266 -128.4429931640625,-86.71700286865234 C-129.4499969482422,-87.77300262451172 -130.51300048828125,-88.79199981689453 -130.5019989013672,-88.87899780273438 C-130.50100708007812,-88.88899993896484 -130.56100463867188,-88.98400115966797 -130.6739959716797,-89.15299987792969 C-130.78900146484375,-89.32099914550781 -130.95700073242188,-89.56500244140625 -131.16799926757812,-89.87300109863281 C-131.59800720214844,-90.48500061035156 -132.20899963378906,-91.35399627685547 -132.9409942626953,-92.3949966430664 C-134.41400146484375,-94.47200012207031 -136.38099670410156,-97.2249984741211 -138.39199829101562,-99.98200225830078 C-139.38900756835938,-101.3280029296875 -140.38800048828125,-102.6760025024414 -141.32699584960938,-103.94300079345703 C-142.23399353027344,-105.23600006103516 -143.08200073242188,-106.4469985961914 -143.81399536132812,-107.49099731445312 C-145.2899932861328,-109.59700012207031 -146.31300354003906,-111.0250015258789 -146.40899658203125,-111.0770034790039 C-146.78599548339844,-111.28800201416016 -151.2949981689453,-115.54100036621094 -151.6479949951172,-115.6719970703125 C-151.98899841308594,-115.80500030517578 -152.83999633789062,-116.66400146484375 -153.76400756835938,-116.4990005493164 C-154.2100067138672,-116.41400146484375 -155.8800048828125,-114.96900177001953 -156.1280059814453,-114.58699798583984 C-156.16400146484375,-114.52999877929688 -156.18299865722656,-114.46499633789062 -156.1909942626953,-114.39700317382812 C-156.19500732421875,-114.36299896240234 -156.1959991455078,-114.3280029296875 -156.19500732421875,-114.29399871826172 C-156.18800354003906,-114.2490005493164 -156.17599487304688,-114.2020034790039 -156.16400146484375,-114.15499877929688 C-156.11399841308594,-113.96800231933594 -156.03599548339844,-113.78099822998047 -155.98800659179688,-113.65899658203125 C-155.9459991455078,-113.59300231933594 -151.8350067138672,-107.09300231933594 -147.5050048828125,-100.24500274658203 C-145.20700073242188,-96.87799835205078 -142.8520050048828,-93.4260025024414 -140.94900512695312,-90.63700103759766 C-139.052001953125,-87.87000274658203 -137.5749969482422,-85.7760009765625 -137.0019989013672,-85.1259994506836 C-135.96200561523438,-83.94499969482422 -134.94200134277344,-82.76799774169922 -134.15499877929688,-81.83899688720703 C-133.35899353027344,-80.89900207519531 -132.83399963378906,-80.25599670410156 -132.68800354003906,-80.01399993896484 C-132.6199951171875,-79.89800262451172 -131.83599853515625,-80.4469985961914 -131.32200622558594,-80.83499908447266 C-129.76699829101562,-82.00499725341797 -127.10399627685547,-84.03399658203125 -126.75299835205078,-84.37999725341797 C-126.69599914550781,-84.44200134277344 -126.69200134277344,-84.52799987792969 -126.7509994506836,-84.66100311279297 C-126.822998046875,-84.81300354003906 -126.94999694824219,-85.00299835205078 -127.11599731445312,-85.21800231933594" fill-opacity="1"></path></clipPath><clipPath id="__lottie_element_43"><path fill="#ffffff" clip-rule="nonzero" d=" M-207.60400390625,-26.448999404907227 C-207.4409942626953,-26.368000030517578 -207.04100036621094,-27.239999771118164 -206.80099487304688,-27.83799934387207 C-206.07899475097656,-29.645000457763672 -204.85800170898438,-32.722999572753906 -204.86700439453125,-33.250999450683594 C-204.86900329589844,-33.42900085449219 -205.03700256347656,-33.58700180053711 -205.28799438476562,-33.722999572753906 C-205.41299438476562,-33.79100036621094 -205.55999755859375,-33.85300064086914 -205.71600341796875,-33.90999984741211 C-205.86500549316406,-33.96200180053711 -206.00999450683594,-34.00199890136719 -206.16200256347656,-34.03900146484375 C-206.76300048828125,-34.185001373291016 -207.36000061035156,-34.24100112915039 -207.36000061035156,-34.24100112915039 C-207.36000061035156,-34.24100112915039 -208.24000549316406,-34.452999114990234 -209.16299438476562,-34.67499923706055 C-210.08399963378906,-34.9010009765625 -211.03900146484375,-35.130001068115234 -211.2050018310547,-35.196998596191406 C-211.24899291992188,-35.2140007019043 -211.79800415039062,-35.37900161743164 -212.71600341796875,-35.643001556396484 C-213.63499450683594,-35.900001525878906 -214.92300415039062,-36.2599983215332 -216.44500732421875,-36.685001373291016 C-219.49200439453125,-37.51900100708008 -223.48399353027344,-38.56100082397461 -227.3560028076172,-39.47200012207031 C-230.6739959716797,-40.25199890136719 -233.9029998779297,-40.93600082397461 -236.3350067138672,-41.42599868774414 C-238.76699829101562,-41.91600036621094 -240.40199279785156,-42.21099853515625 -240.53399658203125,-42.21099853515625 C-241.1490020751953,-42.2140007019043 -243.39599609375,-42.78200149536133 -244.3300018310547,-42.23699951171875 C-244.78900146484375,-41.96900177001953 -245.5279998779297,-39.888999938964844 -245.25599670410156,-39.34199905395508 C-245.09500122070312,-39.01900100708008 -244.08299255371094,-38.54100036621094 -243.5989990234375,-38.301998138427734 C-243.53199768066406,-38.26900100708008 -242.40899658203125,-37.875 -240.66200256347656,-37.27299880981445 C-238.91299438476562,-36.67599868774414 -236.54100036621094,-35.86600112915039 -233.97900390625,-34.99100112915039 C-228.85000610351562,-33.255001068115234 -222.95199584960938,-31.285999298095703 -219.72500610351562,-30.31999969482422 C-216.79400634765625,-29.445999145507812 -213.8990020751953,-28.55900001525879 -211.65699768066406,-27.847000122070312 C-209.40499877929688,-27.134000778198242 -207.8509979248047,-26.58799934387207 -207.60400390625,-26.448999404907227" fill-opacity="1"></path></clipPath><clipPath id="__lottie_element_46"><path fill="#ffffff" clip-rule="nonzero" d=" M-188.5070037841797,49.38199996948242 C-188.92999267578125,48.994998931884766 -189.47500610351562,48.63600158691406 -189.9290008544922,48.38100051879883 C-190.15699768066406,48.25400161743164 -190.36099243164062,48.15399932861328 -190.52699279785156,48.097999572753906 C-190.70599365234375,48.04999923706055 -190.8470001220703,48.04800033569336 -190.92999267578125,48.11000061035156 C-190.97500610351562,48.143001556396484 -191.36399841308594,48.525001525878906 -192.13499450683594,49.207000732421875 C-192.8979949951172,49.887001037597656 -194.00900268554688,50.84400177001953 -195.36199951171875,52 C-196.04200744628906,52.584999084472656 -196.77699279785156,53.21799850463867 -197.5540008544922,53.887001037597656 C-197.947998046875,54.23500061035156 -198.3509979248047,54.59199905395508 -198.76400756835938,54.957000732421875 C-199.18299865722656,55.33599853515625 -199.6060028076172,55.72200012207031 -200.08799743652344,56.20899963378906 C-200.08799743652344,56.20899963378906 -200.47000122070312,56.612998962402344 -200.47000122070312,56.612998962402344 C-200.47000122070312,56.612998962402344 -200.73599243164062,56.90999984741211 -200.73599243164062,56.90999984741211 C-200.91700744628906,57.108001708984375 -201.09800720214844,57.30699920654297 -201.281005859375,57.507999420166016 C-201.6490020751953,57.90800094604492 -202.0290069580078,58.308998107910156 -202.4199981689453,58.709999084472656 C-203.1999969482422,59.512001037597656 -204.01699829101562,60.31399917602539 -204.85499572753906,61.11000061035156 C-206.531005859375,62.70199966430664 -208.28900146484375,64.26599884033203 -209.97300720214844,65.75700378417969 C-211.7989959716797,67.38899993896484 -213.2270050048828,68.88300323486328 -214.5500030517578,70.10199737548828 C-215.85299682617188,71.3239974975586 -216.9770050048828,72.26799774169922 -217.802001953125,72.84600067138672 C-218.21499633789062,73.1449966430664 -218.54600524902344,73.33999633789062 -218.79400634765625,73.48699951171875 C-219.03399658203125,73.60800170898438 -219.19700622558594,73.69100189208984 -219.27000427246094,73.71399688720703 C-219.5449981689453,73.77100372314453 -219.2010040283203,74.94300079345703 -218.6929931640625,76.25700378417969 C-218.07400512695312,77.83999633789062 -217.3509979248047,79.20099639892578 -216.7899932861328,78.98899841308594 C-216.4929962158203,78.87899780273438 -215.6300048828125,78.4469985961914 -214.56199645996094,77.70600128173828 C-213.49400329589844,76.96800231933594 -212.21299743652344,75.92500305175781 -210.85899353027344,74.67500305175781 C-209.5019989013672,73.44200134277344 -208.02499389648438,71.94599914550781 -206.55499267578125,70.59100341796875 C-205.75399780273438,69.87699890136719 -204.92799377441406,69.13899993896484 -204.08900451660156,68.39099884033203 C-203.23599243164062,67.625 -202.37100219726562,66.83599853515625 -201.51199340820312,66.0260009765625 C-199.79299926757812,64.40799713134766 -198.0970001220703,62.70500183105469 -196.572998046875,60.97800064086914 C-196.572998046875,60.97800064086914 -196.28900146484375,60.654998779296875 -196.28900146484375,60.654998779296875 C-196.28900146484375,60.654998779296875 -196.0540008544922,60.391998291015625 -196.0540008544922,60.391998291015625 C-195.9499969482422,60.26900100708008 -195.7760009765625,60.09700012207031 -195.61399841308594,59.933998107910156 C-195.2779998779297,59.60200119018555 -194.91200256347656,59.257999420166016 -194.5500030517578,58.92300033569336 C-193.80499267578125,58.24300003051758 -193.09300231933594,57.59400177001953 -192.4250030517578,56.98400115966797 C-189.70700073242188,54.53200149536133 -187.7239990234375,52.56399917602539 -187.31199645996094,51.79399871826172 C-187.2010040283203,51.595001220703125 -187.20399475097656,51.25 -187.38400268554688,50.81800079345703 C-187.56500244140625,50.391998291015625 -187.9340057373047,49.90700149536133 -188.5070037841797,49.38199996948242" fill-opacity="1"></path></clipPath><clipPath id="__lottie_element_49"><path fill="#ffffff" clip-rule="nonzero" d=" M-87.46099853515625,85.85099792480469 C-89.40299987792969,85.73999786376953 -92.71099853515625,85.59500122070312 -93.21399688720703,85.69000244140625 C-93.38400268554688,85.7239990234375 -93.48500061035156,85.85299682617188 -93.54000091552734,86.02799987792969 C-93.6050033569336,86.23400115966797 -93.62799835205078,86.5009994506836 -93.62999725341797,86.76499938964844 C-93.64800262451172,87.31900024414062 -93.58499908447266,87.87000274658203 -93.58499908447266,87.87000274658203 C-93.58499908447266,87.87000274658203 -93.64099884033203,88.7300033569336 -93.6989974975586,89.63099670410156 C-93.76799774169922,90.54100036621094 -93.85600280761719,91.50299835205078 -93.89700317382812,91.6729965209961 C-93.90399932861328,91.72000122070312 -93.98400115966797,92.2750015258789 -94.11799621582031,93.2040023803711 C-94.24500274658203,94.13999938964844 -94.42400360107422,95.4530029296875 -94.63500213623047,97.00399780273438 C-94.73400115966797,97.79299926757812 -94.83999633789062,98.64199829101562 -94.95099639892578,99.53399658203125 C-94.97599792480469,99.76399993896484 -95.00199890136719,99.99800109863281 -95.02799987792969,100.23300170898438 C-95.052001953125,100.48400115966797 -95.0770034790039,100.73899841308594 -95.10199737548828,100.99500274658203 C-95.11900329589844,101.23500061035156 -95.13700103759766,101.47699737548828 -95.15499877929688,101.72200012207031 C-95.16899871826172,101.94499969482422 -95.18299865722656,102.16999816894531 -95.197998046875,102.39700317382812 C-95.3489990234375,104.27799987792969 -95.50900268554688,106.25900268554688 -95.66600036621094,108.20500183105469 C-96.21700286865234,114.93399810791016 -96.46700286865234,121.30699920654297 -96.41000366210938,121.56900024414062 C-96.31800079345703,122.1729965209961 -96.52400207519531,124.48999786376953 -95.80400085449219,125.31300354003906 C-95.45700073242188,125.71700286865234 -93.27300262451172,126.0270004272461 -92.78700256347656,125.68199920654297 C-92.50599670410156,125.48500061035156 -92.21499633789062,124.45500183105469 -92.05999755859375,123.95099639892578 C-92.03299713134766,123.80500030517578 -91.21299743652344,119.32599639892578 -90.25,114.06199645996094 C-89.76899719238281,111.41000366210938 -89.25900268554688,108.55599975585938 -88.83499908447266,105.91500091552734 C-88.6259994506836,104.58499908447266 -88.43399810791016,103.3290023803711 -88.29299926757812,102.10099792480469 C-88.23899841308594,101.6780014038086 -88.16600036621094,101.19000244140625 -88.08899688720703,100.70800018310547 C-88.01399993896484,100.22599792480469 -87.94400024414062,99.77899932861328 -87.88099670410156,99.375 C-87.40399932861328,96.35299682617188 -86.93099975585938,93.35800170898438 -86.56199645996094,91.01899719238281 C-86.19499969482422,88.64600372314453 -85.9749984741211,86.84500122070312 -85.90899658203125,86.27799987792969 C-85.86799621582031,86.00800323486328 -86.81800079345703,85.88600158691406 -87.46099853515625,85.85099792480469" fill-opacity="1"></path></clipPath><clipPath id="__lottie_element_52"><path fill="#ffffff" clip-rule="nonzero" d=" M17.766000747680664,115.552001953125 C16.902999877929688,105.21900177001953 15.493000030517578,94.94999694824219 15.513999938964844,94.00599670410156 C15.51200008392334,93.50499725341797 14.295999526977539,93.43199920654297 12.895000457763672,93.58899688720703 C11.206000328063965,93.77799987792969 9.696999549865723,94.0999984741211 9.706999778747559,94.55400085449219 C9.710000038146973,95.54499816894531 10.934000015258789,105.24199676513672 11.833999633789062,115.03199768066406 C12.258000373840332,119.80999755859375 12.368000030517578,124.83100128173828 12.746000289916992,128.86099243164062 C13.095000267028809,132.8939971923828 13.729999542236328,135.89700317382812 14.104999542236328,136.656005859375 C14.314000129699707,137.08599853515625 15.229000091552734,137.4010009765625 16.764999389648438,137.1529998779297 C17.89699935913086,136.96800231933594 19.224000930786133,136.29100036621094 19.197999954223633,135.8040008544922 C19.184999465942383,135.66200256347656 18.76799964904785,133.26499938964844 18.50200080871582,129.55099487304688 C18.207000732421875,125.84300231933594 18.14900016784668,120.8010025024414 17.766000747680664,115.552001953125" fill-opacity="1"></path></clipPath><clipPath id="__lottie_element_55"><path fill="#ffffff" clip-rule="nonzero" d=" M142.83299255371094,106.197998046875 C142.48599243164062,104.98400115966797 142.1280059814453,103.72799682617188 141.76400756835938,102.4520034790039 C141.40199279785156,101.1760025024414 141.03500366210938,99.87999725341797 140.6219940185547,98.56500244140625 C138.99000549316406,93.33200073242188 137.1199951171875,88.19999694824219 135.7270050048828,84.24400329589844 C134.3249969482422,80.28900146484375 133.3990020751953,77.49500274658203 133.30299377441406,77.01899719238281 C133.19500732421875,76.51000213623047 131.98399353027344,76.66999816894531 130.64100646972656,77.0979995727539 C129.02200317382812,77.61499786376953 127.61000061035156,78.23400115966797 127.72000122070312,78.70700073242188 C127.83599853515625,79.22100067138672 128.7169952392578,81.95700073242188 130.0449981689453,85.75900268554688 C131.36399841308594,89.56400299072266 133.1269989013672,94.42400360107422 134.70399475097656,99.322998046875 C135.5,101.75299835205078 136.1999969482422,104.29000091552734 136.91700744628906,106.66400146484375 C137.62600708007812,109.04399871826172 138.30999755859375,111.29399871826172 138.9320068359375,113.2770004272461 C140.17599487304688,117.24299621582031 141.17300415039062,120.14099884033203 141.63099670410156,120.87200164794922 C141.88600158691406,121.27999877929688 142.83799743652344,121.5250015258789 144.35299682617188,121.16799926757812 C145.4709930419922,120.90499877929688 146.71499633789062,120.08699798583984 146.61900329589844,119.54199981689453 C146.59100341796875,119.38500213623047 145.84300231933594,116.74400329589844 144.72999572753906,112.84300231933594 C144.17300415039062,110.89299774169922 143.5260009765625,108.62699890136719 142.83299255371094,106.197998046875" fill-opacity="1"></path></clipPath><clipPath id="__lottie_element_58"><path fill="#ffffff" clip-rule="nonzero" d=" M226.38299560546875,65.21099853515625 C225.5500030517578,64.63500213623047 224.3820037841797,63.9010009765625 223.17100524902344,63.06399917602539 C223.00799560546875,62.95000076293945 222.84100341796875,62.83300018310547 222.6719970703125,62.7140007019043 C222.48399353027344,62.58100128173828 222.29200744628906,62.44900131225586 222.0970001220703,62.31999969482422 C221.70700073242188,62.055999755859375 221.3040008544922,61.79899978637695 220.88999938964844,61.54100036621094 C220.06199645996094,61.0260009765625 219.1929931640625,60.520999908447266 218.31300354003906,60.020999908447266 C217.45399475097656,59.53200149536133 216.56700134277344,59.0260009765625 215.66400146484375,58.512001037597656 C215.22500610351562,58.257999420166016 214.79400634765625,58 214.36900329589844,57.73899841308594 C213.8990020751953,57.45399856567383 213.42599487304688,57.167999267578125 212.9530029296875,56.88199996948242 C209.13099670410156,54.612998962402344 205.14700317382812,52.71699905395508 202.0919952392578,51.29600143432617 C199.031005859375,49.880001068115234 196.88900756835938,48.90399932861328 196.56300354003906,48.689998626708984 C196.2100067138672,48.46500015258789 195.5469970703125,49.48099899291992 194.9510040283203,50.757999420166016 C194.23199462890625,52.29800033569336 193.697998046875,53.74300003051758 194.02499389648438,53.941001892089844 C194.37899780273438,54.15999984741211 196.42999267578125,55.119998931884766 199.28799438476562,56.45600128173828 C202.14300537109375,57.79800033569336 205.78399658203125,59.5359992980957 209.2530059814453,61.52000045776367 C209.68499755859375,61.770999908447266 210.12100219726562,62.01599884033203 210.5449981689453,62.275001525878906 C210.99400329589844,62.542999267578125 211.44200134277344,62.8120002746582 211.88699340820312,63.077999114990234 C212.8179931640625,63.625 213.72999572753906,64.12699890136719 214.59800720214844,64.60099792480469 C216.3350067138672,65.5469970703125 217.8990020751953,66.40299987792969 219.1719970703125,67.21600341796875 C219.52000427246094,67.44100189208984 219.85699462890625,67.65899658203125 220.18099975585938,67.86799621582031 C220.52699279785156,68.08799743652344 220.85499572753906,68.28500366210938 221.1649932861328,68.47000122070312 C221.78399658203125,68.83799743652344 222.33200073242188,69.14900207519531 222.802001953125,69.41100311279297 C223.74200439453125,69.93299865722656 224.36000061035156,70.26200103759766 224.65899658203125,70.34300231933594 C224.98899841308594,70.427001953125 225.77699279785156,69.98300170898438 226.8350067138672,68.84100341796875 C227.6230010986328,68.00700378417969 228.19400024414062,66.61799621582031 227.8090057373047,66.2509994506836 C227.7570037841797,66.20099639892578 227.2220001220703,65.78299713134766 226.38299560546875,65.21099853515625" fill-opacity="1"></path></clipPath><clipPath id="__lottie_element_61"><path fill="#ffffff" clip-rule="nonzero" d=" M246.1320037841797,-44.935001373291016 C245.83599853515625,-46.042999267578125 245.11500549316406,-47.319000244140625 244.6300048828125,-47.24700164794922 C244.49400329589844,-47.2239990234375 242.20199584960938,-46.61800003051758 238.82699584960938,-45.62300109863281 C237.13900756835938,-45.125 235.1820068359375,-44.52399826049805 233.0850067138672,-43.83100128173828 C230.98399353027344,-43.12900161743164 228.7570037841797,-42.36199951171875 226.4739990234375,-41.382999420166016 C225.25100708007812,-40.84299850463867 224.35499572753906,-40.39899826049805 223.3159942626953,-39.95899963378906 C222.2989959716797,-39.520999908447266 221.27000427246094,-39.10100173950195 220.2519989013672,-38.6879997253418 C218.21600341796875,-37.8650016784668 216.2310028076172,-37.053001403808594 214.50399780273438,-36.22999954223633 C213.9530029296875,-35.96900177001953 213.1230010986328,-35.68199920654297 212.44900512695312,-35.44499969482422 C211.7429962158203,-35.207000732421875 211.11399841308594,-34.994998931884766 210.57899475097656,-34.814998626708984 C209.49600219726562,-34.459999084472656 208.76400756835938,-34.22800064086914 208.53799438476562,-34.17599868774414 C208.05999755859375,-34.06999969482422 208.21200561523438,-32.8380012512207 208.7519989013672,-31.535999298095703 C209.06399536132812,-30.746000289916992 209.39700317382812,-30.007999420166016 209.6739959716797,-29.4689998626709 C209.94400024414062,-28.929000854492188 210.17599487304688,-28.593000411987305 210.35800170898438,-28.635000228881836 C210.5540008544922,-28.68000030517578 211.21400451660156,-28.88599967956543 212.26499938964844,-29.222999572753906 C212.79299926757812,-29.39699935913086 213.41099548339844,-29.60099983215332 214.10499572753906,-29.82900047302246 C214.82000732421875,-30.075000762939453 215.5540008544922,-30.315000534057617 216.54600524902344,-30.72100067138672 C216.95700073242188,-30.908000946044922 217.38400268554688,-31.101999282836914 217.822998046875,-31.301000595092773 C218.22799682617188,-31.47800064086914 218.64500427246094,-31.659000396728516 219.07200622558594,-31.84600067138672 C219.93699645996094,-32.2140007019043 220.86399841308594,-32.59199905395508 221.83799743652344,-32.986000061035156 C222.82699584960938,-33.391998291015625 223.8459930419922,-33.810001373291016 224.8820037841797,-34.23500061035156 C225.406005859375,-34.457000732421875 225.93800354003906,-34.6870002746582 226.4720001220703,-34.92599868774414 C226.99400329589844,-35.16699981689453 227.52000427246094,-35.409000396728516 228.0449981689453,-35.652000427246094 C229.89500427246094,-36.5099983215332 231.9739990234375,-37.28099822998047 233.94200134277344,-37.983001708984375 C235.91900634765625,-38.683998107910156 237.8209991455078,-39.31800079345703 239.50399780273438,-39.88100051879883 C242.8719940185547,-41.005001068115234 245.36199951171875,-41.845001220703125 245.98199462890625,-42.263999938964844 C246.32000732421875,-42.49399948120117 246.5279998779297,-43.430999755859375 246.1320037841797,-44.935001373291016" fill-opacity="1"></path></clipPath><clipPath id="__lottie_element_64"><path fill="#ffffff" clip-rule="nonzero" d=" M160.1649932861328,-107.92400360107422 C159.73199462890625,-108.14900207519531 159.09800720214844,-108.29900360107422 158.40199279785156,-108.40799713134766 C156.72300720214844,-108.65299987792969 155.17799377441406,-108.81500244140625 155.12100219726562,-108.73699951171875 C155.10899353027344,-108.71299743652344 155.04100036621094,-108.5739974975586 154.98199462890625,-108.40599822998047 C154.89199829101562,-108.20500183105469 154.78399658203125,-107.93199920654297 154.59800720214844,-107.55899810791016 C154.24200439453125,-106.822998046875 153.66400146484375,-105.76300048828125 152.8990020751953,-104.50399780273438 C152.13600158691406,-103.2300033569336 151.21800231933594,-101.82099914550781 150.1820068359375,-100.12999725341797 C149.9040069580078,-99.66699981689453 149.6719970703125,-99.25900268554688 149.42599487304688,-98.8239974975586 C149.18499755859375,-98.38999938964844 148.94200134277344,-97.95099639892578 148.69700622558594,-97.50800323486328 C148.21400451660156,-96.61799621582031 147.73599243164062,-95.70600128173828 147.2760009765625,-94.78199768066406 C146.8159942626953,-93.85900115966797 146.3699951171875,-92.9260025024414 145.947998046875,-91.99700164794922 C145.74099731445312,-91.53099822998047 145.53599548339844,-91.06800079345703 145.33200073242188,-90.60900115966797 C145.23300170898438,-90.37899780273438 145.13499450683594,-90.1500015258789 145.03700256347656,-89.9219970703125 C144.9530029296875,-89.73100280761719 144.8679962158203,-89.54100036621094 144.78500366210938,-89.35199737548828 C144.08700561523438,-87.8270034790039 143.16200256347656,-86.2699966430664 142.4149932861328,-84.70800018310547 C142.2270050048828,-84.32099914550781 142.05299377441406,-83.92900085449219 141.88999938964844,-83.5479965209961 C141.7270050048828,-83.15399932861328 141.5850067138672,-82.79100036621094 141.46800231933594,-82.46399688720703 C141.2519989013672,-81.84600067138672 141.05599975585938,-81.28700256347656 140.88699340820312,-80.8010025024414 C140.5800018310547,-79.90799713134766 140.3509979248047,-79.34400177001953 140.3090057373047,-79.04299926757812 C140.26699829101562,-78.72200012207031 140.78399658203125,-77.9749984741211 142.03900146484375,-77.05400085449219 C142.9600067138672,-76.37100219726562 144.36900329589844,-75.90399932861328 144.6929931640625,-76.31600189208984 C144.73199462890625,-76.37300109863281 145.11099243164062,-76.93900299072266 145.59300231933594,-77.91799926757812 C146.08799743652344,-78.89299774169922 146.5679931640625,-80.2239990234375 147.11300659179688,-81.37100219726562 C147.6840057373047,-82.58999633789062 148.59100341796875,-84.05999755859375 149.5679931640625,-85.91200256347656 C149.8090057373047,-86.37699890136719 150.052001953125,-86.86299896240234 150.2830047607422,-87.38200378417969 C150.48199462890625,-87.8280029296875 150.68499755859375,-88.28099822998047 150.88900756835938,-88.73699951171875 C151.2949981689453,-89.62899780273438 151.7209930419922,-90.52899932861328 152.16200256347656,-91.42400360107422 C153.04299926757812,-93.21399688720703 153.99400329589844,-94.97799682617188 154.9409942626953,-96.62699890136719 C155.3730010986328,-97.375 155.89100646972656,-98.18499755859375 156.36900329589844,-98.9530029296875 C156.85299682617188,-99.73999786376953 157.31500244140625,-100.48999786376953 157.7449951171875,-101.18800354003906 C158.60299682617188,-102.61499786376953 159.3159942626953,-103.88800048828125 159.8179931640625,-104.93800354003906 C159.9429931640625,-105.20800018310547 160.0570068359375,-105.4540023803711 160.15899658203125,-105.67400360107422 C160.25900268554688,-105.91300201416016 160.34500122070312,-106.1240005493164 160.42100524902344,-106.30500030517578 C160.57000732421875,-106.69100189208984 160.66600036621094,-106.98699951171875 160.71800231933594,-107.10099792480469 C160.8280029296875,-107.38099670410156 160.59800720214844,-107.71099853515625 160.1649932861328,-107.92400360107422" fill-opacity="1"></path></clipPath><clipPath id="__lottie_element_67"><path fill="#ffffff" clip-rule="nonzero" d=" M65.29199981689453,-134.83799743652344 C63.42399978637695,-135.38600158691406 60.20899963378906,-136.3159942626953 59.715999603271484,-136.36700439453125 C59.38199996948242,-136.39999389648438 59.104000091552734,-134.98399353027344 58.86199951171875,-133.5189971923828 C58.62200164794922,-132.05599975585938 58.43899917602539,-130.5500030517578 58.362998962402344,-130.5030059814453 C58.354000091552734,-130.4980010986328 58.31399917602539,-130.38900756835938 58.24599838256836,-130.19000244140625 C58.180999755859375,-129.98899841308594 58.084999084472656,-129.69900512695312 57.9640007019043,-129.33099365234375 C57.72800064086914,-128.59100341796875 57.39799880981445,-127.53700256347656 57.0260009765625,-126.24800109863281 C56.65399932861328,-124.95999908447266 56.242000579833984,-123.43699645996094 55.861000061035156,-121.76599884033203 C55.47999954223633,-120.0999984741211 55.14500045776367,-118.33200073242188 54.8489990234375,-116.57499694824219 C54.55400085449219,-114.81900024414062 54.297000885009766,-113.07599639892578 54.0620002746582,-111.45700073242188 C53.79899978637695,-109.85800170898438 53.551998138427734,-108.36100006103516 53.34000015258789,-107.06999969482422 C52.91699981689453,-104.49099731445312 52.64799880981445,-102.73400115966797 52.67900085449219,-102.62799835205078 C52.80500030517578,-102.21099853515625 53.03099822998047,-95.92900085449219 53.17499923706055,-95.58499908447266 C53.32099914550781,-95.24700164794922 53.314998626708984,-94.02200317382812 54.058998107910156,-93.49500274658203 C54.42499923706055,-93.23600006103516 56.5880012512207,-92.78299713134766 57.04600143432617,-92.92400360107422 C57.316001892089844,-93.00700378417969 57.53300094604492,-93.56099700927734 57.645999908447266,-93.8270034790039 C57.650001525878906,-93.84700012207031 57.762001037597656,-94.34400177001953 57.95500183105469,-95.20899963378906 C58.143001556396484,-96.07499694824219 58.40999984741211,-97.30999755859375 58.731998443603516,-98.7959976196289 C59.3650016784668,-101.7760009765625 60.2130012512207,-105.77100372314453 61.08399963378906,-109.87000274658203 C61.83399963378906,-113.96499633789062 62.608001708984375,-118.01899719238281 63.46200180053711,-121.13099670410156 C64.30999755859375,-124.27200317382812 65.12000274658203,-126.73100280761719 65.28199768066406,-127.58999633789062 C65.91500091552734,-130.7010040283203 66.61399841308594,-133.8560028076172 66.7750015258789,-134.25399780273438 C66.82099914550781,-134.36000061035156 65.91000366210938,-134.65699768066406 65.29199981689453,-134.83799743652344" fill-opacity="1"></path></clipPath></defs><g clip-path="url(#__lottie_element_35)"><g clip-path="url(#__lottie_element_67)" transform="matrix(1,0,0,1,275,150)" opacity="1" style="display: block;"><g opacity="1" transform="matrix(0.9946699738502502,0,0,0.9783499836921692,0,0)"><path stroke-linecap="round" stroke-linejoin="miter" fill-opacity="0" stroke-miterlimit="4" stroke="rgb(241,143,177)" stroke-opacity="1" stroke-width="12" d=" M53.505001068115234,-92.37699890136719 C53.505001068115234,-92.37699890136719 64,-141 64,-141"></path></g></g><g clip-path="url(#__lottie_element_64)" style="display: block;" transform="matrix(1,0,0,1,275,150)" opacity="1"><g opacity="1" transform="matrix(1,0,0,1,0,0)"><path stroke-linecap="round" stroke-linejoin="miter" fill-opacity="0" stroke-miterlimit="4" stroke="rgb(241,143,177)" stroke-opacity="1" stroke-width="12" d=" M139.5,-75 C139.5,-75 160,-112.5 160,-112.5"></path></g></g><g clip-path="url(#__lottie_element_61)" style="display: block;" transform="matrix(1,0,0,1,275,150)" opacity="1"><g opacity="1" transform="matrix(1,0,0,1,0,0)"><path stroke-linecap="round" stroke-linejoin="miter" fill-opacity="0" stroke-miterlimit="4" stroke="rgb(241,143,177)" stroke-opacity="1" stroke-width="12" d=" M205.5,-30 C205.5,-30 249,-47 249,-47"></path></g></g><g clip-path="url(#__lottie_element_58)" style="display: block;" transform="matrix(1,0,0,1,275,150)" opacity="1"><g opacity="1" transform="matrix(1,0,0,1,0,0)"><path stroke-linecap="round" stroke-linejoin="miter" fill-opacity="0" stroke-miterlimit="4" stroke="rgb(241,143,177)" stroke-opacity="1" stroke-width="12" d=" M192,47.5 C192,47.5 231,71.5 231,71.5"></path></g></g><g clip-path="url(#__lottie_element_55)" style="display: block;" transform="matrix(1,0,0,1,275,150)" opacity="1"><g opacity="1" transform="matrix(1,0,0,1,0,0)"><path stroke-linecap="round" stroke-linejoin="miter" fill-opacity="0" stroke-miterlimit="4" stroke="rgb(241,143,177)" stroke-opacity="1" stroke-width="12" d=" M128.5,73 C128.5,73 145,124 145,124"></path></g></g><g clip-path="url(#__lottie_element_52)" style="display: block;" transform="matrix(1,0,0,1,275,150)" opacity="1"><g opacity="1" transform="matrix(1,0,0,1,0,0)"><path stroke-linecap="round" stroke-linejoin="miter" fill-opacity="0" stroke-miterlimit="4" stroke="rgb(241,143,177)" stroke-opacity="1" stroke-width="12" d=" M12,90 C12,90 16.5,139.5 16.5,139.5"></path></g></g><g clip-path="url(#__lottie_element_49)" style="display: block;" transform="matrix(1,0,0,1,275,150)" opacity="1"><g opacity="1" transform="matrix(1,0,0,1,0,0)"><path stroke-linecap="round" stroke-linejoin="miter" fill-opacity="0" stroke-miterlimit="4" stroke="rgb(241,143,177)" stroke-opacity="1" stroke-width="12" d=" M-90,82.5 C-90,82.5 -95.5,127.5 -95.5,127.5"></path></g></g><g clip-path="url(#__lottie_element_46)" style="display: block;" transform="matrix(1,0,0,1,275,150)" opacity="1"><g opacity="1" transform="matrix(1,0,0,1,0,0)"><path stroke-linecap="round" stroke-linejoin="miter" fill-opacity="0" stroke-miterlimit="4" stroke="rgb(241,143,177)" stroke-opacity="1" stroke-width="12" d=" M-186.5,44.5 C-186.5,44.5 -223,79.5 -223,79.5"></path></g></g><g clip-path="url(#__lottie_element_43)" style="display: block;" transform="matrix(1,0,0,1,275,150)" opacity="1"><g opacity="1" transform="matrix(1,0,0,1,0,0)"><path stroke-linecap="round" stroke-linejoin="miter" fill-opacity="0" stroke-miterlimit="4" stroke="rgb(241,143,177)" stroke-opacity="1" stroke-width="12" d=" M-204,-31 C-204,-31 -248.5,-42.5 -248.5,-42.5"></path></g></g><g clip-path="url(#__lottie_element_40)" style="display: block;" transform="matrix(1,0,0,1,275,150)" opacity="1"><g opacity="1" transform="matrix(1,0,0,1,0,0)"><path stroke-linecap="round" stroke-linejoin="miter" fill-opacity="0" stroke-miterlimit="4" stroke="rgb(241,143,177)" stroke-opacity="1" stroke-width="12" d=" M-129.5,-80.5 C-129.5,-80.5 -157,-119 -157,-119"></path></g></g><g clip-path="url(#__lottie_element_37)" style="display: block;" transform="matrix(1,0,0,1,275,150)" opacity="1"><g opacity="1" transform="matrix(1,0,0,1,0,0)"><path stroke-linecap="round" stroke-linejoin="miter" fill-opacity="0" stroke-miterlimit="4" stroke="rgb(241,143,177)" stroke-opacity="1" stroke-width="12" d=" M-41,-96 C-41,-96 -45.5,-136 -45.5,-136"></path></g></g></g></svg>