<svg xmlns="http://www.w3.org/2000/svg" viewBox="0 0 600 100" width="600" height="100" preserveAspectRatio="xMidYMid meet" style="width: 100%; height: 100%; transform: translate3d(0px, 0px, 0px);"><defs><clipPath id="__lottie_element_23"><rect width="600" height="100" x="0" y="0"></rect></clipPath><clipPath id="__lottie_element_25"><path fill="#ffffff" clip-rule="nonzero" d=" M-268.8139953613281,-9.64799976348877 C-270.239990234375,-9.559000015258789 -270.54901123046875,-8.329000473022461 -270.51300048828125,-7.519999980926514 C-270.40399169921875,-5.076000213623047 -270.0769958496094,-0.8820000290870667 -268.8789978027344,-0.3580000102519989 C-268.0669860839844,0.0010000000474974513 -249.33099365234375,-1.628000020980835 -230.5500030517578,-3.000999927520752 C-211.7729949951172,-4.409999847412109 -192.9600067138672,-5.632999897003174 -192.12100219726562,-5.591000080108643 C-191.9219970703125,-5.598999977111816 -186.28799438476562,-5.831999778747559 -176.56700134277344,-6.235000133514404 C-166.84500122070312,-6.620999813079834 -153.03599548339844,-7.1479997634887695 -136.48599243164062,-7.625 C-103.38800048828125,-8.605999946594238 -59.32699966430664,-9.317999839782715 -15.14799976348877,-9.258000373840332 C29.030000686645508,-9.239999771118164 73.31999969482422,-8.5 106.875,-7.656000137329102 C140.43099975585938,-6.818999767303467 163.2550048828125,-5.965000152587891 164.531005859375,-5.991000175476074 C167.08299255371094,-6.0229997634887695 188.07200622558594,-5.716000080108643 208.91099548339844,-5.218999862670898 C229.7469940185547,-4.658999919891357 250.43099975585938,-4.1020002365112305 252.4010009765625,-4.048999786376953 C256.3330078125,-4.085000038146973 271.7449951171875,-3.4070000648498535 276.6650085449219,-4.034999847412109 C277.26800537109375,-4.111000061035156 277.7760009765625,-4.343999862670898 278.15301513671875,-4.645999908447266 C278.3609924316406,-4.794000148773193 278.46600341796875,-4.978000164031982 278.6730041503906,-5.146999835968018 C279.0539855957031,-5.302999973297119 279.5299987792969,-5.072000026702881 279.75299072265625,-5.046000003814697 C279.9830017089844,-5.01800012588501 280.2380065917969,-5.066999912261963 280.0950012207031,-5.619999885559082 C280.01800537109375,-5.88700008392334 279.7019958496094,-6.323999881744385 279.1839904785156,-6.572000026702881 C279.0589904785156,-6.633999824523926 278.9280090332031,-6.684999942779541 278.79998779296875,-6.723999977111816 C278.77801513671875,-6.75 278.77099609375,-6.7729997634887695 278.7539978027344,-6.796999931335449 C278.7250061035156,-6.84499979019165 278.6919860839844,-6.89300012588501 278.656005859375,-6.940000057220459 C278.35198974609375,-7.318999767303467 277.8580017089844,-7.63700008392334 277.156005859375,-7.828999996185303 C275.48699951171875,-8.293000221252441 268.093994140625,-8.944000244140625 264.5350036621094,-9.243000030517578 C264.2879943847656,-9.258999824523926 257.8299865722656,-9.670000076293945 246.62899780273438,-10.383000373840332 C235.4290008544922,-11.055000305175781 219.48800659179688,-11.946999549865723 200.26600646972656,-12.871000289916992 C161.82400512695312,-14.734999656677246 110.25700378417969,-16.66699981689453 57.3129997253418,-17.68199920654297 C4.370999813079834,-18.732999801635742 -49.94499969482422,-18.812999725341797 -93.83799743652344,-18.0939998626709 C-137.73199462890625,-17.424999237060547 -171.19500732421875,-16.024999618530273 -182.46200561523438,-15.423999786376953 C-223.36599731445312,-13.324000358581543 -263.5,-10.032999992370605 -268.8139953613281,-9.64799976348877" fill-opacity="1"></path><path fill="#ffffff" clip-rule="nonzero" d=" M-277.6940002441406,10.241999626159668 C-279.0379943847656,10.416999816894531 -279.2380065917969,11.661999702453613 -279.1419982910156,12.465999603271484 C-278.8550109863281,14.895000457763672 -278.2250061035156,19.054000854492188 -277.0830078125,19.509000778198242 C-276.343994140625,19.812999725341797 -258.97900390625,17.209999084472656 -241.49899291992188,15.072999954223633 C-232.77200317382812,13.932999610900879 -224.01499938964844,12.961000442504883 -217.36000061035156,12.140999794006348 C-210.6999969482422,11.355999946594238 -206.11599731445312,10.92300033569336 -205.72500610351562,10.909000396728516 C-205.53900146484375,10.892999649047852 -200.28700256347656,10.432000160217285 -191.22300720214844,9.63700008392334 C-186.69400024414062,9.213000297546387 -181.197998046875,8.845999717712402 -174.9149932861328,8.343000411987305 C-168.6280059814453,7.883999824523926 -161.55299377441406,7.25 -153.8260040283203,6.769000053405762 C-122.93699645996094,4.572999954223633 -81.77300262451172,2.5880000591278076 -40.481998443603516,1.5880000591278076 C-30.158000946044922,1.4079999923706055 -19.827999114990234,1.2280000448226929 -9.64900016784668,1.0509999990463257 C-8.376999855041504,1.0290000438690186 -7.105999946594238,1.0069999694824219 -5.839000225067139,0.9850000143051147 C-4.572000026702881,0.9860000014305115 -3.306999921798706,0.9860000014305115 -2.0450000762939453,0.9869999885559082 C0.4779999852180481,0.9890000224113464 2.990000009536743,0.9900000095367432 5.486999988555908,0.9919999837875366 C10.480999946594238,0.9950000047683716 15.416999816894531,0.996999979019165 20.275999069213867,1 C39.7140007019043,0.8460000157356262 57.9010009765625,1.4479999542236328 73.58599853515625,1.7020000219345093 C77.50700378417969,1.7790000438690186 81.27100372314453,1.8519999980926514 84.85900115966797,1.9220000505447388 C88.44400024414062,2.065000057220459 91.85399627685547,2.2009999752044678 95.06700134277344,2.3289999961853027 C101.49299621582031,2.5869998931884766 107.13500213623047,2.812999963760376 111.83499908447266,3.000999927520752 C121.23500061035156,3.371999979019165 126.86499786376953,3.5810000896453857 127.46199798583984,3.575000047683716 C129.85800170898438,3.3940000534057617 149.4459991455078,4.296999931335449 168.92300415039062,5.072000026702881 C173.79200744628906,5.270999908447266 178.6540069580078,5.46999979019165 183.23500061035156,5.6570000648498535 C187.80799865722656,5.955999851226807 192.1009979248047,6.236999988555908 195.84500122070312,6.48199987411499 C203.33299255371094,6.966000080108643 208.6230010986328,7.294000148773193 209.54200744628906,7.314000129699707 C213.218994140625,7.39300012588501 227.61500549316406,8.437999725341797 232.26600646972656,7.820000171661377 C234.55099487304688,7.515999794006348 235.4080047607422,4.807000160217285 232.82899475097656,4.034999847412109 C231.30799865722656,3.5799999237060547 224.41000366210938,2.805000066757202 221.09100341796875,2.421999931335449 C220.86000061035156,2.4000000953674316 214.8300018310547,1.8250000476837158 204.3719940185547,0.824999988079071 C199.14199829101562,0.328000009059906 192.8040008544922,-0.27399998903274536 185.531005859375,-0.9649999737739563 C178.25100708007812,-1.562999963760376 170.02099609375,-2.069000005722046 161.031005859375,-2.7139999866485596 C152.03900146484375,-3.318000078201294 142.28399658203125,-4.060999870300293 131.927001953125,-4.685999870300293 C121.56199645996094,-5.163000106811523 110.60099792480469,-5.666999816894531 99.21800231933594,-6.190999984741211 C96.37200164794922,-6.322000026702881 93.5,-6.453999996185303 90.60399627685547,-6.586999893188477 C87.70800018310547,-6.72599983215332 84.78700256347656,-6.86299991607666 81.84400177001953,-6.910999774932861 C75.95800018310547,-7.054999828338623 69.98799896240234,-7.201000213623047 63.95500183105469,-7.348999977111816 C51.888999938964844,-7.604000091552734 39.57099914550781,-8.071000099182129 27.17099952697754,-8.017999649047852 C20.97100067138672,-8.045999526977539 14.75100040435791,-8.074999809265137 8.532999992370605,-8.102999687194824 C5.423999786376953,-8.116999626159668 2.315000057220459,-8.130999565124512 -0.7900000214576721,-8.145000457763672 C-3.8959999084472656,-8.168999671936035 -6.998000144958496,-8.175000190734863 -10.093999862670898,-8.111000061035156 C-22.479000091552734,-7.939000129699707 -34.770999908447266,-7.767000198364258 -46.797000885009766,-7.599999904632568 C-58.819000244140625,-7.235000133514404 -70.57499694824219,-6.879000186920166 -81.89399719238281,-6.534999847412109 C-87.55500030517578,-6.394000053405762 -93.10099792480469,-6.10699987411499 -98.51699829101562,-5.85099983215332 C-103.93299865722656,-5.593999862670898 -109.21800231933594,-5.3429999351501465 -114.35099792480469,-5.099999904632568 C-155.406005859375,-2.994999885559082 -186.66000366210938,-0.38100001215934753 -197.1699981689453,0.7049999833106995 C-206.70899963378906,1.6770000457763672 -216.20899963378906,2.5950000286102295 -225.15499877929688,3.6519999504089355 C-229.62899780273438,4.1570000648498535 -233.968994140625,4.646999835968018 -238.11199951171875,5.114999771118164 C-242.2519989013672,5.625 -246.19500732421875,6.111000061035156 -249.87899780273438,6.565000057220459 C-257.2489929199219,7.436999797821045 -263.5740051269531,8.35200023651123 -268.3739929199219,8.958000183105469 C-273.1820068359375,9.621000289916992 -276.4540100097656,10.071000099182129 -277.6940002441406,10.241999626159668" fill-opacity="1"></path></clipPath></defs><g clip-path="url(#__lottie_element_23)"><g clip-path="url(#__lottie_element_25)" transform="matrix(1,0,0,1,300,50)" opacity="1" style="display: block;"><g opacity="1" transform="matrix(1,0,0,1,0,0)"><path stroke-linecap="butt" stroke-linejoin="miter" fill-opacity="0" stroke-miterlimit="4" stroke="rgb(240,142,177)" stroke-opacity="1" stroke-width="11" d=" M-274.5,-2.5 C-201.5,-15.5 -18,-21 282,-4"></path></g><g opacity="1" transform="matrix(1,0,0,1,0,0)"><path stroke-linecap="butt" stroke-linejoin="miter" fill-opacity="0" stroke-miterlimit="4" stroke="rgb(240,142,177)" stroke-opacity="1" stroke-width="11" d=" M-285,17.5 C-234,8.5 -63,-16 239.5,7.5"></path></g></g></g></svg>