<svg xmlns="http://www.w3.org/2000/svg" viewBox="0 0 500 270" width="500" height="270" preserveAspectRatio="xMidYMid meet" style="width: 100%; height: 100%; transform: translate3d(0px, 0px, 0px);"><defs><clipPath id="__lottie_element_10"><rect width="500" height="270" x="0" y="0"></rect></clipPath><mask id="__lottie_element_12"><path fill="#ffffff" clip-rule="nonzero" d=" M235.4669952392578,-4.546000003814697 C235.27099609375,-6.188000202178955 234.9010009765625,-7.791999816894531 234.58599853515625,-9.39900016784668 C234.17100524902344,-10.979999542236328 233.8249969482422,-12.579000473022461 233.2989959716797,-14.112000465393066 C231.39199829101562,-20.319000244140625 228.51699829101562,-26.034000396728516 225.177001953125,-31.219999313354492 C221.81300354003906,-36.39899826049805 217.92999267578125,-41.020999908447266 213.84800720214844,-45.21099853515625 C205.63400268554688,-53.5629997253418 196.5850067138672,-60.11600112915039 187.64700317382812,-65.62899780273438 C178.68899536132812,-71.13899993896484 169.74899291992188,-75.53700256347656 161.19200134277344,-79.29199981689453 C144.03799438476562,-86.73699951171875 128.36199951171875,-91.49800109863281 115.2239990234375,-94.95099639892578 C102.06999969482422,-98.38300323486328 91.4020004272461,-100.43099975585938 83.8479995727539,-101.76699829101562 C76.28800201416016,-103.08200073242188 71.83499908447266,-103.68199920654297 70.98300170898438,-103.79499816894531 C67.57599639892578,-104.19400024414062 51.847999572753906,-106.49800109863281 29.84000015258789,-107.35700225830078 C18.850000381469727,-107.7770004272461 6.25600004196167,-107.8219985961914 -6.992000102996826,-106.98200225830078 C-20.26300048828125,-106.40299987792969 -34.22600173950195,-104.9000015258789 -48.10100173950195,-103.09100341796875 C-75.84300231933594,-99.25700378417969 -102.99800109863281,-92.74299621582031 -123.62200164794922,-86.66699981689453 C-128.8040008544922,-85.2249984741211 -133.53399658203125,-83.65899658203125 -137.80999755859375,-82.2969970703125 C-139.9459991455078,-81.61000061035156 -141.96499633789062,-80.96199798583984 -143.85499572753906,-80.35399627685547 C-145.72999572753906,-79.70099639892578 -147.4759979248047,-79.09100341796875 -149.08399963378906,-78.53099822998047 C-151.38299560546875,-77.72699737548828 -153.39199829101562,-77.0250015258789 -155.08799743652344,-76.43199920654297 C-153.92799377441406,-76.9749984741211 -152.7790069580078,-77.50499725341797 -151.6540069580078,-78.01100158691406 C-145.2239990234375,-80.9010009765625 -139.37600708007812,-83.21099853515625 -134.25799560546875,-85.06500244140625 C-131.7100067138672,-86.01799774169922 -129.33299255371094,-86.83200073242188 -127.16000366210938,-87.56600189208984 C-124.99700164794922,-88.32499694824219 -123.01300048828125,-88.93900299072266 -121.25299835205078,-89.50399780273438 C-95.66100311279297,-97.63500213623047 -69.16200256347656,-102.69000244140625 -44.01100158691406,-105.7979965209961 C-18.832000732421875,-108.86299896240234 5.053999900817871,-109.94000244140625 25.958999633789062,-109.79499816894531 C46.87200164794922,-109.64299774169922 64.8030014038086,-108.25499725341797 78.28199768066406,-106.61299896240234 C91.7750015258789,-105.00199890136719 100.79900360107422,-103.11799621582031 104.21499633789062,-102.43199920654297 C107.85800170898438,-101.6240005493164 109.16000366210938,-102.5739974975586 109.41000366210938,-103.3479995727539 C110.15799713134766,-105.68800354003906 111.11000061035156,-109.78500366210938 108.16200256347656,-111.0510025024414 C107.1719970703125,-111.46800231933594 94.13700103759766,-114.49700164794922 74.89800262451172,-116.5999984741211 C55.66999816894531,-118.78900146484375 30.267000198364258,-119.87799835205078 4.919000148773193,-119.00800323486328 C-7.752999782562256,-118.572998046875 -20.410999298095703,-117.7300033569336 -32.275001525878906,-116.52799987792969 C-44.13999938964844,-115.3290023803711 -55.2130012512207,-113.81800079345703 -64.74500274658203,-112.25 C-83.81099700927734,-109.1050033569336 -96.70600128173828,-105.86399841308594 -97.80799865722656,-105.63700103759766 C-98.06999969482422,-105.58699798583984 -101.91000366210938,-104.72100067138672 -108.83499908447266,-102.90699768066406 C-115.75299835205078,-101.0780029296875 -125.75700378417969,-98.2490005493164 -138.14199829101562,-93.72799682617188 C-150.48899841308594,-89.16799926757812 -165.34500122070312,-83.00800323486328 -181.02000427246094,-73.22899627685547 C-182.95199584960938,-71.96399688720703 -184.96200561523438,-70.76000213623047 -186.90199279785156,-69.36699676513672 C-187.88099670410156,-68.68699645996094 -188.86900329589844,-68.00199890136719 -189.86300659179688,-67.31199645996094 C-190.8350067138672,-66.58599853515625 -191.81399536132812,-65.8550033569336 -192.8000030517578,-65.11900329589844 C-194.79200744628906,-63.67599868774414 -196.697998046875,-62.04800033569336 -198.66799926757812,-60.452999114990234 C-199.6510009765625,-59.65299987792969 -200.58399963378906,-58.770999908447266 -201.5540008544922,-57.92399978637695 C-202.08700561523438,-57.448001861572266 -202.6230010986328,-56.972999572753906 -203.15499877929688,-56.487998962402344 C-210.302001953125,-53.09700012207031 -216.49400329589844,-49.922000885009766 -220.04600524902344,-47.80400085449219 C-225.59500122070312,-44.560001373291016 -225.80299377441406,-41.37699890136719 -218.8300018310547,-44.14799880981445 C-217.80099487304688,-44.55500030517578 -215.9219970703125,-45.391998291015625 -213.54400634765625,-46.465999603271484 C-213.14199829101562,-46.643001556396484 -212.70700073242188,-46.834999084472656 -212.2779998779297,-47.02399826049805 C-216.8509979248047,-41.70899963378906 -221.0659942626953,-35.77199935913086 -224.55299377441406,-29.131999969482422 C-230.08999633789062,-18.895999908447266 -233.45599365234375,-6.9039998054504395 -234.31399536132812,5.5879998207092285 C-235.1649932861328,18.01799964904785 -233.1999969482422,31.4689998626709 -227.3520050048828,43.65599822998047 C-225.875,46.68299865722656 -224.22300720214844,49.64699935913086 -222.35899353027344,52.492000579833984 C-220.46200561523438,55.30799865722656 -218.45899963378906,58.08599853515625 -216.20899963378906,60.66299819946289 C-213.98500061035156,63.26100158691406 -211.62100219726562,65.75800323486328 -209.09800720214844,68.09300231933594 C-206.60299682617188,70.46299743652344 -203.94900512695312,72.66500091552734 -201.22000122070312,74.78199768066406 C-195.73899841308594,78.98600006103516 -189.88299560546875,82.7509994506836 -183.75999450683594,86.08499908447266 C-177.64500427246094,89.43900299072266 -171.28700256347656,92.41600036621094 -164.75799560546875,95.06199645996094 C-151.70399475097656,100.38099670410156 -138.02000427246094,104.48899841308594 -124.0270004272461,107.7959976196289 C-110.02899932861328,111.10299682617188 -95.70899963378906,113.61100006103516 -81.21900177001953,115.53099822998047 C-52.22700119018555,119.34300231933594 -22.570999145507812,120.87000274658203 7.058000087738037,120.87899780273438 C36.7869987487793,120.86499786376953 66.5780029296875,118.30999755859375 95.43399810791016,112.67900085449219 C109.85600280761719,109.8550033569336 124.04100036621094,106.25199890136719 137.78799438476562,101.70999908447266 C141.2449951171875,100.64199829101562 144.61399841308594,99.32099914550781 148.00799560546875,98.12100219726562 C151.38800048828125,96.8759994506836 154.7050018310547,95.47599792480469 158.0330047607422,94.1500015258789 C164.60400390625,91.2699966430664 171.10299682617188,88.31300354003906 177.31100463867188,84.8489990234375 C183.58099365234375,81.51799774169922 189.54100036621094,77.67900085449219 195.28700256347656,73.63600158691406 C198.093994140625,71.50800323486328 200.94400024414062,69.47200012207031 203.56900024414062,67.14099884033203 C203.56900024414062,67.14099884033203 205.5709991455078,65.44599914550781 205.5709991455078,65.44599914550781 C205.5709991455078,65.44599914550781 206.5679931640625,64.5979995727539 206.5679931640625,64.5979995727539 C206.5679931640625,64.5979995727539 207.51800537109375,63.691001892089844 207.51800537109375,63.691001892089844 C208.781005859375,62.48099899291992 210.04100036621094,61.27399826049805 211.2969970703125,60.06999969482422 C212.5449981689453,58.85599899291992 213.67300415039062,57.51599884033203 214.86099243164062,56.249000549316406 C214.86099243164062,56.249000549316406 216.61599731445312,54.32400131225586 216.61599731445312,54.32400131225586 C217.17100524902344,53.654998779296875 217.7010040283203,52.9640007019043 218.2429962158203,52.2859992980957 C219.30499267578125,50.90999984741211 220.4290008544922,49.59199905395508 221.427001953125,48.17599868774414 C222.39500427246094,46.736000061035156 223.36000061035156,45.29899978637695 224.32200622558594,43.867000579833984 C224.822998046875,43.165000915527344 225.24899291992188,42.4119987487793 225.66400146484375,41.65299987792969 C225.66400146484375,41.65299987792969 226.927001953125,39.39400100708008 226.927001953125,39.39400100708008 C226.927001953125,39.39400100708008 228.1820068359375,37.13999938964844 228.1820068359375,37.13999938964844 C228.56300354003906,36.36899948120117 228.8979949951172,35.57500076293945 229.2570037841797,34.79499816894531 C229.2570037841797,34.79499816894531 230.31199645996094,32.446998596191406 230.31199645996094,32.446998596191406 C230.6490020751953,31.65999984741211 231.0469970703125,30.899999618530273 231.2969970703125,30.077999114990234 C231.85499572753906,28.458999633789062 232.41000366210938,26.844999313354492 232.96400451660156,25.236000061035156 C233.27099609375,24.44099998474121 233.43099975585938,23.601999282836914 233.64199829101562,22.780000686645508 C233.64199829101562,22.780000686645508 234.24200439453125,20.30900001525879 234.24200439453125,20.30900001525879 C234.24200439453125,20.30900001525879 234.83099365234375,17.8439998626709 234.83099365234375,17.8439998626709 C234.83099365234375,17.8439998626709 235.19500732421875,15.343999862670898 235.19500732421875,15.343999862670898 C235.19500732421875,15.343999862670898 235.55099487304688,12.85200023651123 235.55099487304688,12.85200023651123 C235.65699768066406,12.022000312805176 235.82400512695312,11.197999954223633 235.83099365234375,10.36299991607666 C235.91000366210938,8.697999954223633 235.98899841308594,7.038000106811523 236.06700134277344,5.385000228881836 C236.16600036621094,2.068000078201294 235.95899963378906,-1.2860000133514404 235.4669952392578,-4.546000003814697" fill-opacity="1"></path><path fill="#000000" clip-rule="nonzero" d=" M227.13499450683594,5.88700008392334 C226.9290008544922,14 225.11099243164062,22.047000885009766 221.81500244140625,29.541000366210938 C218.5330047607422,37.04600143432617 213.82200622558594,43.981998443603516 208.21600341796875,50.20500183105469 C202.60699462890625,56.4379997253418 196.1230010986328,61.97999954223633 189.1699981689453,66.93699645996094 C182.17999267578125,71.86000061035156 174.6959991455078,76.15799713134766 166.9770050048828,80.02999877929688 C159.2689971923828,83.93399810791016 151.22799682617188,87.24400329589844 143.07200622558594,90.23300170898438 C126.74800109863281,96.2249984741211 109.79299926757812,100.55799865722656 92.71900177001953,103.8740005493164 C75.625,107.13899993896484 58.358001708984375,109.22200012207031 41.1619987487793,110.44599914550781 C23.952999114990234,111.6729965209961 6.836999893188477,111.7770004272461 -10.177000045776367,111.4010009765625 C-44.13600158691406,110.59200286865234 -77.33899688720703,107.72200012207031 -108.55500030517578,101.53299713134766 C-124.14600372314453,98.4260025024414 -139.23699951171875,94.47599792480469 -153.42100524902344,89.30899810791016 C-167.58200073242188,84.14199829101562 -180.9010009765625,77.76000213623047 -192.29200744628906,69.60099792480469 C-203.6750030517578,61.49399948120117 -213.0240020751953,51.45399856567383 -218.54600524902344,40.0099983215332 C-221.31700134277344,34.30799865722656 -223.16099548339844,28.31800079345703 -224.10899353027344,22.275999069213867 C-225.11599731445312,16.246999740600586 -225.10499572753906,10.142999649047852 -224.6230010986328,4.2179999351501465 C-224.1060028076172,-1.6929999589920044 -222.9739990234375,-7.4019999504089355 -221.2050018310547,-12.765999794006348 C-219.43299865722656,-18.128999710083008 -217.0989990234375,-23.1560001373291 -214.3800048828125,-27.809999465942383 C-211.67100524902344,-32.470001220703125 -208.56900024414062,-36.7599983215332 -205.19400024414062,-40.643001556396484 C-201.83999633789062,-44.540000915527344 -198.3179931640625,-48.125 -194.63299560546875,-51.32099914550781 C-191.87399291992188,-53.78300094604492 -189.0590057373047,-56.04999923706055 -186.22999572753906,-58.15399932861328 C-185.82200622558594,-58.321998596191406 -185.35299682617188,-58.51499938964844 -184.81199645996094,-58.737998962402344 C-183.81199645996094,-59.150001525878906 -182.58999633789062,-59.654998779296875 -181.14999389648438,-60.249000549316406 C-179.69900512695312,-60.816001892089844 -178.02999877929688,-61.46799850463867 -176.14999389648438,-62.20199966430664 C-172.38600158691406,-63.66400146484375 -167.78799438476562,-65.48699951171875 -162.32699584960938,-67.41500091552734 C-159.59800720214844,-68.38400268554688 -156.697998046875,-69.5009994506836 -153.5570068359375,-70.54900360107422 C-150.41799926757812,-71.60199737548828 -147.08599853515625,-72.72000122070312 -143.56700134277344,-73.9010009765625 C-129.44200134277344,-78.45500183105469 -112.16600036621094,-83.51899719238281 -92.0270004272461,-87.99500274658203 C-71.89800262451172,-92.46499633789062 -48.893001556396484,-96.33999633789062 -23.548999786376953,-98.33599853515625 C-20.381000518798828,-98.58000183105469 -17.179000854492188,-98.82599639892578 -13.944999694824219,-99.07499694824219 C-10.704000473022461,-99.20099639892578 -7.431000232696533,-99.3280029296875 -4.125999927520752,-99.45700073242188 C-0.8220000267028809,-99.56199645996094 2.5190000534057617,-99.75700378417969 5.881999969482422,-99.79299926757812 C9.244999885559082,-99.83899688720703 12.640999794006348,-99.84500122070312 16.06599998474121,-99.78800201416016 C29.76799964904785,-99.59100341796875 43.95199966430664,-98.67400360107422 58.46200180053711,-96.93199920654297 C72.96900177001953,-95.18900299072266 87.81600189208984,-92.68099975585938 102.78700256347656,-89.17500305175781 C117.75399780273438,-85.6780014038086 132.87100219726562,-81.22699737548828 147.7469940185547,-75.43000030517578 C162.5959930419922,-69.62699890136719 177.29600524902344,-62.50699996948242 190.66200256347656,-53.19200134277344 C197.30499267578125,-48.50899887084961 203.63900756835938,-43.310001373291016 209.156005859375,-37.361000061035156 C214.6649932861328,-31.424999237060547 219.39500427246094,-24.759000778198242 222.60499572753906,-17.429000854492188 C225.8159942626953,-10.107999801635742 227.47900390625,-2.1679999828338623 227.13499450683594,5.88700008392334" fill-opacity="1"></path></mask></defs><g clip-path="url(#__lottie_element_10)"><g mask="url(#__lottie_element_12)" transform="matrix(1,0,0,1,250,135)" opacity="1" style="display: block;"><g opacity="1" transform="matrix(1,0,0,1.0006599426269531,0,0)"><path stroke-linecap="round" stroke-linejoin="round" fill-opacity="0" stroke="rgb(241,143,177)" stroke-opacity="1" stroke-width="10" d=" M-224.38600158691406,-43.47700119018555 C-175.64199829101562,-67.54000091552734 -95.69999694824219,-101.0510025024414 1.2920000553131104,-102.98999786376953 C102.36000061035156,-105.01000213623047 232.5330047607422,-66.27300262451172 232.5330047607422,3.6549999713897705 C232.5330047607422,73.58300018310547 125.75599670410156,116.49800109863281 6.331999778747559,116.49800109863281 C-113.09200286865234,116.49800109863281 -230.2050018310547,87.44200134277344 -230.2050018310547,12.769000053405762 C-230.2050018310547,-105.0989990234375 4.375,-133.41099548339844 112.51100158691406,-105.40299987792969"></path></g></g></g></svg>