<?xml version="1.0" encoding="utf-8"?>
<!-- Generator: Adobe Illustrator 23.0.5, SVG Export Plug-In . SVG Version: 6.00 Build 0)  -->
<svg version="1.1" id="Layer_1" xmlns="http://www.w3.org/2000/svg" xmlns:xlink="http://www.w3.org/1999/xlink" x="0px" y="0px"
	 viewBox="0 0 30 30" style="enable-background:new 0 0 30 30;" xml:space="preserve">
<g>
	<path d="M29.4,18.7c-0.6-1-1.8-1.6-3.1-1.4l-4.9,1.2c-0.2-1-1-1.8-2.1-2.1c-0.2,0-7.4-1.2-7.7-1.3l-0.5-0.1c-0.2,0-0.4-0.1-0.7-0.1
		c-0.5,0-0.9,0.2-1.2,0.3l-0.5,0.2c-1.7,0.7-2.5,1-2.9,1.2c-0.1,0-0.2,0.1-0.3,0.1c0,0-0.3,0.1-0.5,0.1c-0.1,0-0.5,0-1.5-0.3
		c-0.7-0.3-1.4-0.6-2.1-0.9l-0.7,1.5c0.7,0.3,1.5,0.7,2.2,0.9c0.6,0.2,1.6,0.6,2.4,0.4c0.4-0.1,0.8-0.2,0.8-0.2
		c0.2-0.1,0.4-0.2,0.5-0.2c0.4-0.2,1.2-0.5,2.9-1.2l0.5-0.2c0.1-0.1,0.4-0.1,0.5-0.1c0.1,0,0.3,0,0.3,0c0,0,0,0,0.2,0l0.3,0
		c0,0,7.5,1.3,7.7,1.3c0.5,0.1,0.9,0.6,0.8,1.1c0,0.5-0.4,0.9-0.8,1l-5.9,0.3l0.1,1.7l5.9-0.3c0.9-0.2,1.7-0.8,2.1-1.6l5.4-1.4
		c0.6-0.1,1.1,0.2,1.4,0.6c0.3,0.5,0.2,1.3-0.3,1.7c-0.9,0.5-9.9,5.6-9.9,5.6l-0.4,0.2c-0.2,0.1-0.4,0.1-0.3,0.1
		c-0.1,0-0.2,0-0.4-0.1l-0.1,0c-1-0.4-8.5-3.2-8.9-3.3l-0.2-0.1c-0.1,0-0.2-0.1-0.3-0.1c-0.4-0.1-1-0.2-1.5,0L5,23.7
		c-0.1,0-4.2,1.2-4.2,1.2l0.5,1.6c0,0,4.2-1.2,4.2-1.2l0.1,0c0.1,0,0.3-0.1,0.2,0c0.1,0,0.2-0.1,0.3-0.1v0c0.2,0,0.4,0,0.5,0L7,25.3
		c0.5,0.2,7.9,3,8.9,3.3l0.2,0.1c0.4,0.1,0.6,0.2,0.9,0.2c0,0,0,0,0,0c0.1,0,0.6,0,1.2-0.4l0.1-0.1v0c0.1,0,0.1-0.1,0.2-0.1
		c9.9-5.6,10-5.6,10-5.6l0.1-0.1C29.9,21.7,30.2,20,29.4,18.7z"/>
	<path d="M15.6,12.8l5.6-5.6c1.2-1.2,1.2-3.3,0-4.5c-0.6-0.6-1.4-0.9-2.3-0.9c-0.9,0-1.7,0.3-2.3,0.9l-1,1l-1-1
		c-1.3-1.3-3.3-1.3-4.5,0C8.8,4,8.8,6,10,7.2L15.6,12.8z"/>
</g>
</svg>
