<?xml version="1.0" encoding="utf-8"?>
<!-- Generator: Adobe Illustrator 23.0.5, SVG Export Plug-In . SVG Version: 6.00 Build 0)  -->
<svg version="1.1" id="Layer_1" xmlns="http://www.w3.org/2000/svg" xmlns:xlink="http://www.w3.org/1999/xlink" x="0px" y="0px"
	 viewBox="0 0 30 30" style="enable-background:new 0 0 30 30;" xml:space="preserve">
<path d="M29.8,13.8L16.3,1.1c0,2.2,0,4.4,0,6.6C15,7.8,9,8.4,4.5,13.6C-1.1,20,0.4,27.9,0.6,28.9c0.7-1.5,2.9-5.2,7.5-7.6
	c3.4-1.8,6.5-2,8.2-2c0,0,0,0,0.1,0l-0.1,7.2L29.8,13.8z M16.3,17.5c-3.1,0-6.3,0.8-9,2.2C5,20.9,3.3,22.4,2,23.8
	c0.2-2.7,1.1-6.1,3.7-9.1c3.8-4.3,8.7-5.2,10.7-5.3L18,9.3V7.7V5l9.3,8.8L18,22.5l0-3.2l0-1.7L16.3,17.5L16.3,17.5z"/>
</svg>
