<?xml version="1.0" encoding="utf-8"?>
<!-- Generator: Adobe Illustrator 23.0.5, SVG Export Plug-In . SVG Version: 6.00 Build 0)  -->
<svg version="1.1" id="Layer_1" xmlns="http://www.w3.org/2000/svg" xmlns:xlink="http://www.w3.org/1999/xlink" x="0px" y="0px"
	 viewBox="0 0 30 30" style="enable-background:new 0 0 30 30;" xml:space="preserve">
<g>
	<path d="M7.1,8.2l-2.5,1c0.6-1.6,1.6-3,2.8-4.2C11.9,0.9,18.9,1.2,23,5.6c0.7,0.7,1.2,1.5,1.7,2.3l1.5-0.8c-0.5-1-1.2-1.9-1.9-2.7
		C22,2,18.8,0.5,15.4,0.4C12,0.3,8.8,1.5,6.3,3.8C4.9,5.1,3.9,6.6,3.2,8.4l-0.9-2L0.7,7.1l2.2,4.8l4.8-2L7.1,8.2z"/>
	<path d="M30.1,18.1l-3.4-4.2l-4.3,3.3l1,1.4l2.5-1.9c0.2,1.3,0.1,2.6-0.2,3.8c-0.1,0.3-0.4,1.2-0.9,2.2c-0.5,1-1.2,1.8-2.1,2.6
		c-2.1,2-5,3.1-7.9,3C11.7,28.2,9,26.9,7,24.8c-0.6-0.6-1.1-1.3-1.5-2.1L4,23.5c0.5,0.9,1.1,1.7,1.8,2.4c2.3,2.5,5.5,3.9,8.9,4
		c0.1,0,0.3,0,0.4,0c3.2,0,6.3-1.2,8.7-3.4c0.9-0.9,1.7-1.9,2.4-3c0.7-1.2,1-2.2,1.1-2.6c0.3-1,0.4-2.1,0.4-3.2l1.2,1.4L30.1,18.1z"
		/>
	<path d="M22.4,23.3v-0.2c0-2.9-2.4-5.3-5.3-5.3H13c-2.9,0-5.3,2.4-5.3,5.3v0.2h1.7v-0.2c0-2,1.6-3.6,3.6-3.6h4.1
		c2,0,3.6,1.6,3.6,3.6v0.2H22.4z"/>
	<path d="M19.3,12c0-2.3-1.9-4.3-4.3-4.3s-4.3,1.9-4.3,4.3c0,2.3,1.9,4.3,4.3,4.3S19.3,14.4,19.3,12z M12.5,12
		c0-1.4,1.1-2.6,2.6-2.6c1.4,0,2.6,1.1,2.6,2.6s-1.1,2.6-2.6,2.6C13.6,14.6,12.5,13.4,12.5,12z"/>
</g>
</svg>
