<?xml version="1.0" encoding="utf-8"?>
<!-- Generator: Adobe Illustrator 23.0.5, SVG Export Plug-In . SVG Version: 6.00 Build 0)  -->
<svg version="1.1" id="Layer_1" xmlns="http://www.w3.org/2000/svg" xmlns:xlink="http://www.w3.org/1999/xlink" x="0px" y="0px"
	 viewBox="0 0 25 25" style="enable-background:new 0 0 25 25;" xml:space="preserve">
<style type="text/css">
	.st0{stroke:#FFFFFF;stroke-width:1.7;stroke-miterlimit:10;}
	.st1{fill:#FFFFFF;}
</style>
<path d="M0.5,6.1v16.5h4.7H16h4.7V6.1H0.5z M6.9,20.9v-7.7h2.9v7.7H6.9z M11.4,20.9v-7.7h2.9v7.7H11.4z M19,20.9h-3v-9.4H5.2v9.4h-3
	V7.8H19V20.9z"/>
<g>
	<path class="st0" d="M24,10.4c-1.1,5.7-6.1,10.9-6.1,10.9s-4.6-4.8-6-10.8c-1.1-5.1,2.7-8.2,6-8.2S25,5.2,24,10.4z"/>
	<path class="st1" d="M17.9,6.7c-1.1,0-2,0.9-2,2s0.9,2,2,2s2-0.9,2-2S19,6.7,17.9,6.7z"/>
</g>
</svg>
