<?xml version="1.0" encoding="utf-8"?>
<!-- Generator: Adobe Illustrator 23.0.5, SVG Export Plug-In . SVG Version: 6.00 Build 0)  -->
<svg version="1.1" id="Layer_1" xmlns="http://www.w3.org/2000/svg" xmlns:xlink="http://www.w3.org/1999/xlink" x="0px" y="0px"
	 viewBox="0 0 25 25" style="enable-background:new 0 0 25 25;" xml:space="preserve">
<path d="M11.9,0.5L2,2.1L0.4,12.3l12.8,12.5l11.7-11.6L11.9,0.5z M7.3,13.2c-0.8,0-1.4-0.6-1.4-1.4c0-0.8,0.6-1.4,1.4-1.4
	c0.8,0,1.4,0.6,1.4,1.4C8.7,12.6,8.1,13.2,7.3,13.2z M11.1,17.4L10.9,6.3l2,0L13,17.4L11.1,17.4z M16.5,13.2c-0.8,0-1.4-0.6-1.4-1.4
	c0-0.8,0.6-1.4,1.4-1.4s1.4,0.6,1.4,1.4C17.9,12.6,17.3,13.2,16.5,13.2z"/>
</svg>
