<?xml version="1.0" encoding="utf-8"?>
<!-- Generator: Adobe Illustrator 23.0.5, SVG Export Plug-In . SVG Version: 6.00 Build 0)  -->
<svg version="1.1" id="Layer_1" xmlns="http://www.w3.org/2000/svg" xmlns:xlink="http://www.w3.org/1999/xlink" x="0px" y="0px"
	 viewBox="0 0 30 30" style="enable-background:new 0 0 30 30;" xml:space="preserve">
<path d="M29.5,13.3C29.5,13.3,29.5,13.3,29.5,13.3L29.5,13.3c-0.2-0.4-2.1-3.1-5.5-5.2l3.8-3.9l-1.2-1.2l-4.2,4.2
	c-2.2-1.1-4.8-1.8-7.9-1.8C5.9,5.7,1.1,12.4,0.5,13.3l0,0c0,0,0,0,0,0c0,0,0,0,0,0l0,0c0.5,0.7,3.5,5,9.1,6.9l-4.5,4.5l1.2,1.2
	l5.1-5.2c1,0.2,2,0.3,3.1,0.4c0.1,0,0.3,0,0.4,0C24,21.1,29.1,13.9,29.5,13.3L29.5,13.3C29.5,13.3,29.5,13.3,29.5,13.3z M2.6,13.3
	c1.2-1.4,3.8-4.1,7.7-5.4c-1,1.1-1.6,2.5-1.6,4c0,1.7,0.7,3.2,1.8,4.3l8.4-8.5c0,0-0.1-0.1-0.1-0.1c0.9,0.2,1.7,0.5,2.4,0.9
	L10.9,18.9C6.6,17.7,3.8,14.8,2.6,13.3z M14.6,19.5c-0.6,0-1.2-0.1-1.7-0.1l1.4-1.4c0.1,0,0.2,0,0.4,0c3.3,0,6-2.7,6-6
	c0-0.2,0-0.3,0-0.5l2.2-2.2c2.2,1.3,3.8,3,4.6,4C25.8,15.3,21.4,19.6,14.6,19.5z"/>
</svg>
