<?xml version="1.0" encoding="utf-8"?>
<!-- Generator: Adobe Illustrator 23.0.5, SVG Export Plug-In . SVG Version: 6.00 Build 0)  -->
<svg version="1.1" id="Layer_1" xmlns="http://www.w3.org/2000/svg" xmlns:xlink="http://www.w3.org/1999/xlink" x="0px" y="0px"
	 viewBox="0 0 30 30" style="enable-background:new 0 0 30 30;" xml:space="preserve">
<g>
	<path d="M18.2,0.5c-8-1.8-15.9,3.3-17.7,11.2c-0.9,3.9-0.2,7.8,2,11.2c2.1,3.3,5.4,5.7,9.3,6.5c1.1,0.2,2.2,0.4,3.2,0.4
		c6.8,0,12.9-4.7,14.5-11.6C31.3,10.3,26.2,2.3,18.2,0.5z M27.8,17.9c-1.6,7.1-8.6,11.5-15.7,10C8.7,27.1,5.8,25,3.9,22
		c-1.9-3-2.5-6.5-1.7-9.9C3.5,6,9,1.9,15,1.9c0.9,0,1.9,0.1,2.9,0.3C24.9,3.8,29.4,10.8,27.8,17.9z"/>
	<polygon points="19.2,6.6 18,5.3 6.9,15.7 7,12.6 5.3,12.5 5.1,18.6 11.2,18.8 11.2,17.1 8.1,17 	"/>
	<polygon points="19.6,12.4 22.8,12.5 11.8,23 13,24.3 23.9,13.8 23.8,16.9 25.5,17 25.7,10.9 19.7,10.7 	"/>
</g>
</svg>
